<?xml version="1.0" encoding="UTF-8"?>
<svg
  xmlns="http://www.w3.org/2000/svg"
  viewBox="0 0 14 14"
  width="14"
  height="14"
>
  <defs>
    <linearGradient id="iceGradient" x1="0" y1="0" x2="0" y2="1">
      <stop offset="0%" stop-color="#04c2c8" />
      <stop offset="100%" stop-color="#83f4f0" />
    </linearGradient>
  </defs>

  <path
    d="M7 0 5.166 3.824.938 3.5 3.332 7 .938 10.5l4.228-.323L7 14l1.834-3.823 4.228.323L10.668 7l2.394-3.5-4.228.324ZM5.18 5.06a.1.1 0 0 1 .06.015L7 5.99l1.76-.914a.123.123 0 0 1 .166.167l-.914 1.76.914 1.759a.123.123 0 0 1-.166.166L7 8.013l-1.76.914a.123.123 0 0 1-.166-.166L5.988 7l-.914-1.76a.123.123 0 0 1 .106-.18"
    fill="url(#iceGradient)"
  />
</svg>
