<?xml version="1.0" encoding="UTF-8"?>
<svg 
    xmlns="http://www.w3.org/2000/svg" 
    viewBox="0 0 14 14" 
    width="24" 
    height="24">
  <path 
    d="M69.609 143.14c-.99 1.034-5.872 6.293-5.86 8.987.023 4.992 4.376 7.404 8.375 5.914.7-.261 1.294-.675 1.825-1.198 3.243-3.198 1.972-7.063-.222-9.242l-3.806-4.452a.207.207 0 0 0-.312-.01zm3.304 6.883c-2.947-.67-2.915 2.468-5.26 2.04-.76-.138-1.242-.545-1.445-1.126.128-.588 2.736-3.688 3.407-4.49a.217.217 0 0 1 .328-.016c.76.774 2.854 3.093 2.97 3.592"
    fill="white"
    stroke="none"
    transform="translate(-54.98 -126.82)scale(.88755)"
  />
</svg>
